<?xml version="1.0" encoding="utf-8"?>
<!-- Generator: Adobe Illustrator 18.1.1, SVG Export Plug-In . SVG Version: 6.00 Build 0)  -->
<svg version="1.1" id="Layer_1" xmlns="http://www.w3.org/2000/svg" xmlns:xlink="http://www.w3.org/1999/xlink" x="0px" y="0px"
	 viewBox="0 0 200 65" enable-background="new 0 0 200 65" xml:space="preserve">
<path fill="#FFFFFF" d="M195.1,26.9c-4.7,0-8.9-2.8-13.8-6c-6.6-4.4-14.1-9.4-25.4-9.4c-4.7,0-9.6,1.1-14.4,2.7c0,0,0,0,0,0
	c-2.7-1.3-5.4-2.8-8.1-4.4c-7.4-4.3-15.1-8.7-24.4-8.7c-9.6,0-19.4,3.7-27.9,8.2c-7-3.9-14-5.9-20.9-5.9c-21.6,0-52.5,20.8-60,26.2
	v3.3c1.9-1.4,37.2-26.8,60-26.8c6.6,0,12.7,2,18.1,4.8c-8.6,4.9-15.6,10.4-19.2,13.4v3.3c4.5-3.4,29.4-23.8,50-23.8
	c8.6,0,15.9,4.2,23,8.3c3.2,1.8,6,3.4,6,3.4c-10.6,4.3-19.9,11-23.7,13.9v3.4c1.9-1.6,23.6-18.6,41.5-18.6c10.5,0,17.6,4.7,23.9,8.9
	c5,3.3,9.7,6.5,15.3,6.5c1.6,0,3.2-0.2,4.8-0.5v-2.7C198.2,26.7,196.6,26.9,195.1,26.9z"/>
</svg>