<?xml version="1.0" encoding="utf-8"?>
<!-- Generator: Adobe Illustrator 18.1.1, SVG Export Plug-In . SVG Version: 6.00 Build 0)  -->
<svg version="1.1" id="Layer_1" xmlns="http://www.w3.org/2000/svg" xmlns:xlink="http://www.w3.org/1999/xlink" x="0px" y="0px"
	 viewBox="0 0 200 65" enable-background="new 0 0 200 65" xml:space="preserve">
<g>
	<g>
		<path fill="#FFFFFF" d="M33.2,63.6h-3.4l-7.3-6.3l-1.7,1.1v5.2h-2.6V46.4h2.6v9.9l8-5.4h3.3l-7.8,5.2L33.2,63.6z"/>
		<path fill="#FFFFFF" d="M55.8,63.6h-2.6v-1.9c-1.8,1.5-3.8,2.2-5.8,2.2c-3.2,0-4.8-1.4-4.8-4.3v-8.7h2.6V59c0,1.1,0.2,1.9,0.7,2.4
			c0.5,0.5,1.2,0.8,2.3,0.8c1.6,0,3.3-0.7,5.1-2.2v-9.2h2.6V63.6z"/>
		<path fill="#FFFFFF" d="M81.7,63.6h-3.4l-7.3-6.3l-1.7,1.1v5.2h-2.6V46.4h2.6v9.9l8-5.4h3.3l-7.8,5.2L81.7,63.6z"/>
		<path fill="#FFFFFF" d="M106,63.6h-3.4l-7.3-6.3l-1.7,1.1v5.2h-2.6V46.4h2.6v9.9l8-5.4h3.3l-7.8,5.2L106,63.6z"/>
		<path fill="#FFFFFF" d="M128.5,63.6H126v-1.9c-1.8,1.5-3.8,2.2-5.8,2.2c-3.2,0-4.8-1.4-4.8-4.3v-8.7h2.6V59c0,1.1,0.2,1.9,0.7,2.4
			c0.5,0.5,1.2,0.8,2.3,0.8c1.6,0,3.3-0.7,5.1-2.2v-9.2h2.6V63.6z"/>
		<path fill="#FFFFFF" d="M151.6,63.6h-7V48h-4.5v-1.6h7v15.5h4.4V63.6z"/>
		<path fill="#FFFFFF" d="M177.5,63.6H175c-0.2-0.5-0.3-1.2-0.3-2c-1.5,1.6-3.4,2.4-6,2.4c-1.3,0-2.4-0.3-3.4-1
			c-1-0.7-1.5-1.5-1.5-2.6c0-0.6,0.2-1.2,0.5-1.7c0.3-0.5,0.8-0.9,1.5-1.2c0.7-0.3,1.5-0.6,2.4-0.8c0.9-0.2,2.1-0.3,3.4-0.4l2.9-0.2
			v-0.6c0-2.2-1.4-3.3-4.1-3.3c-0.6,0-1.5,0.1-2.5,0.3c-1,0.2-1.8,0.5-2.6,0.7l-0.7-1.4c2.3-0.9,4.5-1.3,6.5-1.3
			c3.9,0,5.9,1.5,5.9,4.6v5.5C177.1,61.7,177.2,62.7,177.5,63.6z M174.5,59.8v-2.3c-2.3,0.2-3.9,0.3-4.8,0.4
			c-0.9,0.1-1.6,0.4-2.2,0.8c-0.6,0.4-0.9,0.9-0.9,1.5c0,0.6,0.3,1,0.8,1.4c0.5,0.3,1.2,0.5,2.1,0.5c0.9,0,1.8-0.2,2.7-0.6
			C173.1,61.1,173.8,60.5,174.5,59.8z"/>
	</g>
</g>
<path fill="#FFFFFF" d="M195.1,26.9c-4.7,0-8.9-2.8-13.8-6c-6.6-4.4-14.1-9.4-25.4-9.4c-4.7,0-9.6,1.1-14.4,2.7c0,0,0,0,0,0
	c-2.7-1.3-5.4-2.8-8.1-4.4c-7.4-4.3-15.1-8.7-24.4-8.7c-9.6,0-19.4,3.7-27.9,8.2c-7-3.9-14-5.9-20.9-5.9c-21.6,0-52.5,20.8-60,26.2
	v3.3c1.9-1.4,37.2-26.8,60-26.8c6.6,0,12.7,2,18.1,4.8c-8.6,4.9-15.6,10.4-19.2,13.4v3.3c4.5-3.4,29.4-23.8,50-23.8
	c8.6,0,15.9,4.2,23,8.3c3.2,1.8,6,3.4,6,3.4c-10.6,4.3-19.9,11-23.7,13.9v3.4c1.9-1.6,23.6-18.6,41.5-18.6c10.5,0,17.6,4.7,23.9,8.9
	c5,3.3,9.7,6.5,15.3,6.5c1.6,0,3.2-0.2,4.8-0.5v-2.7C198.2,26.7,196.6,26.9,195.1,26.9z"/>
</svg>